<svg width="24" height="24" xmlns="http://www.w3.org/2000/svg">

 <g>
  <title>background</title>
  <rect fill="none" id="canvas_background" height="402" width="582" y="-1" x="-1"/>
 </g>
 <g>
  <title>Layer 1</title>
  <circle id="svg_1" r="11" fill="#e5e5e5" cy="12" cx="12"/>
  <path id="svg_2" fill="#FFFFFF" d="m14.3127,18.9411c0,-0.2826 0.01,-1.2066 0.01,-2.3545c0,-0.8004 -0.2742,-1.3226 -0.5819,-1.5889c1.9105,-0.2124 3.9176,-0.938 3.9176,-4.2333c0,-0.9367 -0.3329,-1.7021 -0.883,-2.3029c0.0891,-0.2161 0.3829,-1.0888 -0.0841,-2.2706c0,0 -0.7195,-0.2306 -2.3571,0.8795c-0.6857,-0.1902 -1.4202,-0.2854 -2.1494,-0.2887c-0.7292,0.0032 -1.4632,0.0985 -2.1475,0.2887c-1.6396,-1.1101 -2.3601,-0.8795 -2.3601,-0.8795c-0.4658,1.1818 -0.1722,2.0544 -0.0831,2.2706c-0.5489,0.6008 -0.8841,1.3663 -0.8841,2.3029c0,3.2875 2.0034,4.0232 3.909,4.2402c-0.2453,0.2143 -0.4677,0.5927 -0.5447,1.1473c-0.4896,0.2192 -1.7315,0.5984 -2.4967,-0.7133c0,0 -0.4537,-0.8236 -1.3152,-0.8842c0,0 -0.8371,-0.0109 -0.0587,0.5216c0,0 0.5623,0.2636 0.9526,1.2554c0,0 0.5037,1.5313 2.8907,1.0123c0.0036,0.7169 0.0116,1.3928 0.0116,1.5974c0,0.0718 -0.016,0.1475 -0.0512,0.2149c0.7377,0.2252 1.5197,0.3474 2.3302,0.3474c0.7172,0 1.4119,-0.0961 2.0735,-0.2739c-0.069,-0.082 -0.0984,-0.1889 -0.0984,-0.2884z"/>
  <path id="svg_3" opacity="0.1" fill="#231F20" d="m4.2218,19.7782c1.9906,1.9906 4.7406,3.2218 7.7782,3.2218c6.0751,0 11,-4.9249 11,-11c0,-3.0376 -1.2312,-5.7876 -3.2218,-7.7782l-15.5564,15.5564z"/>
 </g>
</svg>