<svg width="24" height="24" xmlns="http://www.w3.org/2000/svg">

 <g>
  <title>background</title>
  <rect fill="none" id="canvas_background" height="402" width="582" y="-1" x="-1"/>
 </g>
 <g>
  <title>Layer 1</title>
  <circle id="svg_1" r="11" fill="#e5e5e5" cy="12" cx="12"/>
  <path id="svg_2" fill="#FFFFFF" d="m10.6669,5.6352c-0.081,0.6568 -0.2311,1.1935 -0.4471,1.6185c-0.2156,0.4256 -0.4996,0.7925 -0.8565,1.0958c-0.3563,0.3037 -0.7845,0.5364 -1.2847,0.699l0,1.8011l1.4106,0l0,4.465c0,0.5816 0.0607,1.0288 0.1826,1.3351c0.1217,0.3067 0.339,0.5966 0.6549,0.8691c0.0584,0.0502 0.1197,0.0925 0.1826,0.1385c0.0702,0.0513 0.1447,0.0988 0.2204,0.1448c0.0596,0.0362 0.1196,0.0741 0.1826,0.1071c0.049,0.0259 0.1,0.0517 0.1511,0.0756c0.0433,0.0199 0.0875,0.0382 0.1323,0.0567c0.0895,0.0375 0.1814,0.0756 0.2771,0.1071c0.447,0.1469 0.9609,0.2204 1.5429,0.2204c0.1282,0 0.2541,-0.0061 0.3778,-0.0126c0.2474,-0.0129 0.4821,-0.0369 0.7116,-0.0756c0.1148,-0.0193 0.2297,-0.0435 0.3401,-0.0693c0.2204,-0.0516 0.4527,-0.1241 0.699,-0.2141c0.2463,-0.09 0.5087,-0.1993 0.7809,-0.3275l0,-1.2217l0,-0.7809c-0.6378,0.4192 -1.2826,0.6235 -1.927,0.6235c-0.3627,0 -0.6818,-0.083 -0.9635,-0.2519c-0.2124,-0.1251 -0.3628,-0.2944 -0.4408,-0.5038c-0.0786,-0.2098 -0.1134,-0.679 -0.1134,-1.4169l0,-3.2684l3.0228,0l0,-1.9966l-3.0228,0l0,-3.218l-1.8135,0l0,0z"/>
  <path id="svg_3" opacity="0.1" fill="#231F20" d="m4.2218,19.7782c1.9906,1.9906 4.7406,3.2218 7.7782,3.2218c6.0751,0 11,-4.9249 11,-11c0,-3.0376 -1.2312,-5.7876 -3.2218,-7.7782l-15.5564,15.5564z"/>
 </g>
</svg>