<svg width="24" height="24" xmlns="http://www.w3.org/2000/svg">

 <g>
  <title>background</title>
  <rect fill="none" id="canvas_background" height="402" width="582" y="-1" x="-1"/>
 </g>
 <g>
  <title>Layer 1</title>
  <circle id="svg_1" r="11" fill="#e5e5e5" cy="12" cx="12"/>
  <path id="svg_2" fill="#FFFFFF" d="m8.0989,5.8956c-0.8304,0 -1.3752,0.5449 -1.3752,1.2615c0,0.7009 0.5264,1.2502 1.3411,1.2502l0.0113,0c0.8466,0 1.3752,-0.5493 1.3752,-1.2502c-0.0157,-0.7167 -0.5219,-1.2615 -1.3524,-1.2615l0,0zm7.1601,3.3527c-1.2928,0 -1.8604,0.7069 -2.1821,1.2047l0,0.0227l-0.0227,0c0.004,-0.0062 0.0187,-0.0164 0.0227,-0.0227l0,-1.0342l-2.4322,0c0.0319,0.6851 0,7.2965 0,7.2965l2.4322,0l0,-4.0801c0,-0.2182 0.0153,-0.435 0.0796,-0.591c0.1754,-0.436 0.5684,-0.8865 1.2388,-0.8865c0.8782,0 1.2388,0.6665 1.2388,1.648l0,3.9096l2.4208,0l0,-4.1824c0,-2.2426 -1.1993,-3.2846 -2.7959,-3.2846zm-8.3875,0.1705l0,7.2965l2.4322,0l0,-7.2965l-2.4322,0z"/>
  <path id="svg_3" opacity="0.1" fill="#231F20" d="m4.2218,19.7782c1.9906,1.9906 4.7406,3.2218 7.7782,3.2218c6.0751,0 11,-4.9249 11,-11c0,-3.0376 -1.2312,-5.7876 -3.2218,-7.7782l-15.5564,15.5564z"/>
 </g>
</svg>